<svg width="22" height="23" viewBox="0 0 22 23" fill="none" xmlns="http://www.w3.org/2000/svg">
<path d="M20.7888 1.47999L21.3788 2.06999C22.1918 2.88399 22.0688 4.32699 21.1018 5.29299L8.93481 17.46L4.99281 18.902C4.49781 19.084 4.01581 18.848 3.91781 18.377C3.88469 18.2061 3.90028 18.0294 3.96281 17.867L5.43281 13.891L17.5658 1.75699C18.5328 0.790995 19.9758 0.666995 20.7888 1.48099V1.47999ZM8.40381 2.68999C8.53513 2.68999 8.66517 2.71586 8.78649 2.76612C8.90782 2.81637 9.01806 2.89003 9.11092 2.98289C9.20377 3.07575 9.27743 3.18599 9.32769 3.30731C9.37794 3.42864 9.40381 3.55867 9.40381 3.68999C9.40381 3.82132 9.37794 3.95135 9.32769 4.07268C9.27743 4.194 9.20377 4.30424 9.11092 4.3971C9.01806 4.48996 8.90782 4.56362 8.78649 4.61387C8.66517 4.66413 8.53513 4.68999 8.40381 4.68999H4.40381C3.87338 4.68999 3.36467 4.90071 2.98959 5.27578C2.61452 5.65085 2.40381 6.15956 2.40381 6.68999V18.69C2.40381 19.2204 2.61452 19.7291 2.98959 20.1042C3.36467 20.4793 3.87338 20.69 4.40381 20.69H16.4038C16.9342 20.69 17.443 20.4793 17.818 20.1042C18.1931 19.7291 18.4038 19.2204 18.4038 18.69V14.69C18.4038 14.4248 18.5092 14.1704 18.6967 13.9829C18.8842 13.7954 19.1386 13.69 19.4038 13.69C19.669 13.69 19.9234 13.7954 20.1109 13.9829C20.2985 14.1704 20.4038 14.4248 20.4038 14.69V18.69C20.4038 19.7509 19.9824 20.7683 19.2322 21.5184C18.4821 22.2686 17.4647 22.69 16.4038 22.69H4.40381C3.34294 22.69 2.32553 22.2686 1.57538 21.5184C0.825236 20.7683 0.403809 19.7509 0.403809 18.69V6.68999C0.403809 5.62913 0.825236 4.61171 1.57538 3.86157C2.32553 3.11142 3.34294 2.68999 4.40381 2.68999H8.40381Z" fill="white"/>
</svg>
